# xmcd
#
# Track frame offsets: 
#        182
#        11077
#        22015
#        31220
#        43532
#        52270
#        64627
#        74727
#        84577
#        94785
#        104272
#        115585
#        128432
#        136472
#        146655
#        155610
#        166975
#        177655
#        190117
#        199580
#        209832
#        222465
#        234625
#        246355
#
# Disc length: 3421 seconds
#
# Revision: 9
# Processed by: cddbd v1.5.2PL0 Copyright (c) Steve Scherf et al.
# Submitted via: ExactAudioCopy v0.99pb4
#
DISCID=6a0d5b18
DTITLE=Various Artist - Classic Rock - 1964
DYEAR=1964
DGENRE=Classic Rock
TTITLE0=Manfred Mann - Do Wah Diddy Diddy
TTITLE1=Zombies - She's Not There
TTITLE2=Tams - What Kind Of Fool (Do You Think I Am)
TTITLE3=Chuck Berry - You Never Can Tell
TTITLE4=Gerry And The Pacemakers - How Do You Do It
TTITLE5=Supremes - Come See About Me
TTITLE6=Searchers - Needles And Pins
TTITLE7=Beach Boys - I Get Around
TTITLE8=Premiers - Farmer John
TTITLE9=Marketts - Out Of Limits
TTITLE10=Peter And Gordon - Nobody I Know
TTITLE11=Impressions - I'm So Proud
TTITLE12=Swinging Blue Jeans - Hippy Hippy Shake
TTITLE13=Kinks - You Really Got Me
TTITLE14=Newbeats - Bread And Butter
TTITLE15=Jan And Dean - Dead Man's Curve
TTITLE16=Billy J. Kramer And The Dakotas - Bad To Me
TTITLE17=Temptations - The Way You Do The Things You Do
TTITLE18=Beach Boys - Fun Fun Fun
TTITLE19=Gerry And The Pacemakers - I Like It
TTITLE20=Jay And The Americans - Come A Little Bit Closer
TTITLE21=Peter And Gordon - A World Without Love
TTITLE22=Dale And Grace - Stop And Think It Over
TTITLE23=Shangri-Las - Remember (Walkin' In The Sand)
EXTD=(c)1987, 1993 Time-Life Inc\n2CLR-03 YEAR: 1964 ID3G: 1
EXTT0=
EXTT1=
EXTT2=
EXTT3=
EXTT4=
EXTT5=
EXTT6=
EXTT7=
EXTT8=
EXTT9=
EXTT10=
EXTT11=
EXTT12=
EXTT13=
EXTT14=
EXTT15=
EXTT16=
EXTT17=
EXTT18=
EXTT19=
EXTT20=
EXTT21=
EXTT22=
EXTT23=
PLAYORDER=
